<?xml version="1.0" encoding="utf-8"?>
<!-- Generator: Adobe Illustrator 18.0.0, SVG Export Plug-In . SVG Version: 6.00 Build 0)  -->
<!DOCTYPE svg PUBLIC "-//W3C//DTD SVG 1.1//EN" "http://www.w3.org/Graphics/SVG/1.1/DTD/svg11.dtd">
<svg version="1.1" id="Layer_1" xmlns="http://www.w3.org/2000/svg" xmlns:xlink="http://www.w3.org/1999/xlink" x="0px" y="0px"
	 viewBox="15.6 37.9 68.7 40.5" enable-background="new 15.6 37.9 68.7 40.5" xml:space="preserve">
<path d="M72.4,48.6H27.6c-0.2,0-0.3,0.1-0.3,0.3v25.2c0,0.2,0.1,0.3,0.3,0.3h44.8c0.2,0,0.3-0.1,0.3-0.3V49
	C72.7,48.8,72.6,48.6,72.4,48.6z M71.9,73.5c0,0.1-0.1,0.2-0.2,0.2h-0.9c-0.1,0-0.2-0.1-0.2-0.2v-0.2c0-0.1,0.1-0.2,0.2-0.2h0.9
	c0.1,0,0.2,0.1,0.2,0.2V73.5z"/>
<path d="M65.8,78c0,0-7.5-0.9-7.5-0.9s0,0,0,0c0,0,0,0,0,0c0,0,6.1,0.1,6.1,0.1c0-0.1-0.1-0.2-0.3-0.3c0,0-0.2-0.1-0.5-0.1
	c-1.7-0.1-11.2-0.6-12-0.6c-0.9-0.1-0.9-1.3-0.9-1.3H50h-0.8c0,0,0,1.3-0.9,1.3c-0.8,0.1-10.3,0.5-12,0.6c-0.3,0-0.5,0.1-0.5,0.1
	c-0.1,0.1-0.3,0.1-0.3,0.3c0,0,6.1-0.1,6.1-0.1s0,0,0,0c0,0,0,0,0,0S34.2,78,34.2,78l0,0c-0.2,0-0.3,0.1-0.3,0.1
	c-0.1,0.1-0.1,0.2-0.1,0.3l15.3-1.5c0,0,0.3,0,0.9,0s0.9,0,0.9,0l15.3,1.5c0-0.1-0.1-0.2-0.1-0.3C66.1,78.1,66,78,65.8,78z"/>
<g id="layer1"  >
	<path id="path2854"  d="M60.7,62.5c-4.3,2,11.4,4.9,6.2,6.7
		c-4.3,1.5-5-6.5-9.8-4.6c-2.4,0.9,3.2,3.2,0.5,3.8c-2.9,0.7-2.3-3.3-5.5-2.9C47,66.2,57.1,74,51,74.4c-5.8,0.4,1.9-8.6-2.8-8.6
		c-2.8,0-1.3,3.7-4.2,3.4c-3.2-0.3,2-3.3-0.9-4.2c-8.7-2.6-6.4,8.2-12.3,6.5c-7-2,11-4.9,7.6-8.7c-2.4-2.6-4.8,4.1-8.4,1.9
		c-3-1.8,9.5-1.7,4.5-4.4c-2.1-1.1-5.2,2.8-6.2,1.2c-1.1-1.7,6.1-1.3,6.1-3.1c0.1-4.3-15.8,1.7-16.1-1.1c-0.4-3.3,15.3,1.3,16.2-2.3
		c0.4-1.6-15.4-0.7-14.6-2.3c0.9-1.7,13.6,1.9,14.6,0.2c1-1.5-6.1-2.2-4.6-3.6c1.7-1.5,4.9,1.9,7,0.5c1.9-1.2-4.1-2.4-1.8-3.4
		c2.5-1.1,4.4,3.3,7,2.3c5.5-2.1-9.1-7.4-3.9-8.6c5.7-1.3,1.9,7.7,8.8,7.1c2.8-0.3-1.7-3.6,1.2-3.8c3.2-0.1-0.8,3.5,2.4,3.7
		c2.9,0.2,1.5-3.6,4.2-3.2c3,0.4-2,4,0.9,4.5c2.7,0.5,4-4.1,6.6-3.3c2.8,0.9-4.3,3.8-1.8,4.9c2.2,1,7.4-6,10.9-3.8
		c3.6,2.4-11.3,3.3-7.3,5c2.3,1,5.2-1.4,6.2,0.1c1.1,1.6-6.3,1.2-5.6,2.9c1.5,3.6,10.9-2.6,12,0c1.8,4.3-7.4,0.3-10.1,2.8
		c-2.6,2.4,12.8,2,12,3.5c-1.3,2.8-12.1-4.6-14-0.5c-4.2,2.1,9.5,3.6,7.5,5.4C68.8,66.7,64.5,61.2,60.7,62.5L60.7,62.5z"/>
	
		<path id="path2859"      d="
		M18.4,52.4c0,0.4-0.6,0.8-1.4,0.8c-0.8,0-1.4-0.3-1.4-0.8c0,0,0,0,0,0c0-0.4,0.6-0.8,1.4-0.8C17.7,51.6,18.4,52,18.4,52.4
		C18.4,52.4,18.4,52.4,18.4,52.4z"/>
	
		<path id="path2857"      d="
		M74.1,51.2c0,0.4-0.6,0.8-1.4,0.8s-1.4-0.3-1.4-0.8c0,0,0,0,0,0c0-0.4,0.6-0.8,1.4-0.8C73.5,50.4,74.1,50.8,74.1,51.2
		C74.1,51.2,74.1,51.2,74.1,51.2z"/>
	
		<path id="path2861"    d="
		M56.4,43.5c0,0,1.1-6.3,4.3-5.6C63.8,38.6,56.4,43.5,56.4,43.5z"/>
	
		<path id="path2864"    d="
		M73.5,57.6c0,0,11.3-1.1,10.8,0.8C84,60.3,73.5,57.6,73.5,57.6z"/>
	
		<path id="path2866"    d="
		M26.1,63.1c0,0-8.8,4.1-10.1,2.3C14.6,63.6,26.1,63.1,26.1,63.1z"/>
</g>
</svg>
